# xmcd CD database file
#
# Track frame offsets:
#	150
#	29607
#	58038
#	87581
#	111408
#	138551
#	170237
#	190290
#	215165
#
# Disc length: 3312 seconds
#
# Revision: 0
# Processed by: cddbd v1.5.2PL0 Copyright (c) Steve Scherf et al.
# Submitted via: CDex 1.51
#
DISCID=940cee09
DTITLE=Various Artist - Our Algonquin Home
DYEAR=2000
DGENRE=New Age
TTITLE0=David Bradstreet - Revitalise
TTITLE1=John Herberman - A Path To Solitude
TTITLE2=Hennie Bekker - First Light
TTITLE3=John Herberman - Restless Skies
TTITLE4=Howard Baer - Dreams Come True
TTITLE5=Roger Saint-Denis - Wings At Rest
TTITLE6=John Herberman - Land Of The Loon
TTITLE7=Hennie Bekker - Around The Campfire
TTITLE8=Greg Kavanagh - Moonlit Waters
EXTD=YEAR: 2000
EXTT0=
EXTT1=
EXTT2=
EXTT3=
EXTT4=
EXTT5=
EXTT6=
EXTT7=
EXTT8=
PLAYORDER=
